<?xml version="1.0" encoding="utf-8"?>
<svg version="1.1" xmlns:xlink="http://www.w3.org/1999/xlink" width="292px" height="234px" xmlns="http://www.w3.org/2000/svg">
  <g transform="matrix(1 0 0 1 -608 -444 )">
    <path d="M 276.512195121951 48.2926829268293  L 32.609756097561 220.243902439024  C 19.6597723426668 227.632177571591  19.2028622158134 234.377464055427  8.21951219512198 231.219512195122  C 2.80255733325612 229.662019931742  -0.0187344774864187 225.512808385325  0.902439024390333 220.243902439024  C 25.6853177559503 78.4913912680702  206.365853658536 -31.0267370437813  286.268292682927 9.26829268292687  C 292.583456582876 12.4530479943361  291.485979417152 23.593517058143  286.268292682927 37.3170731707318  C 283.536585365854 44.5020079049535  282.604477913378 42.8503064857027  276.512195121951 48.2926829268293  Z " fill-rule="nonzero" fill="#ffffff" stroke="none" transform="matrix(1 0 0 1 608 444 )" />
    <path d="M 32.609756097561 220.243902439024  C 19.6597723426668 227.632177571591  19.2028622158134 234.377464055427  8.21951219512198 231.219512195122  C 2.80255733325612 229.662019931742  -0.0187344774864187 225.512808385325  0.902439024390333 220.243902439024  C 25.6853177559503 78.4913912680702  206.365853658536 -31.0267370437813  286.268292682927 9.26829268292687  C 292.583456582876 12.4530479943361  291.485979417152 23.593517058143  286.268292682927 37.3170731707318  C 283.536585365854 44.5020079049535  282.604477913378 42.8503064857027  276.512195121951 48.2926829268293  " stroke-width="1" stroke="#797979" fill="none" transform="matrix(1 0 0 1 608 444 )" />
  </g>
</svg>